# xmcd
# Track frame offsets:
# 150
# 17495
# 30917
# 60555
# 77552
# 94597
# 105490
# 119555
# 139977
# 153242
#
# Disc length: 2301 seconds
# Revision: 0
# Processed by: cddbd v1.4PL0 Copyright (c) Steve Scherf et al.
# Submitted via: VisiTrax 2.9.5.181 - For more info visit www.synapsa.com
#
DISCID=6e08fb0a
DTITLE=Mainline - The Last Show @ the ELMO
DYEAR=2001
DGENRE=
TTITLE0=Blind Girl
TTITLE1=Beltmaker
TTITLE2=Mainline
TTITLE3=Wine, Women and Whiskey
TTITLE4=Get Down To
TTITLE5=T.B. Blues
TTITLE6=Drive You
TTITLE7=Brain Damage
TTITLE8=I Am Normal
TTITLE9=Going to Toronto
EXTD=Bullseye Records BLR-CD-4066
EXTT0=
EXTT1=
EXTT2=
EXTT3=
EXTT4=
EXTT5=
EXTT6=
EXTT7=
EXTT8=
EXTT9=
PLAYORDER=
